<svg xmlns="http://www.w3.org/2000/svg" width="50" height="50" viewBox="0 0 50 50"><g transform="translate(0 -1002.362)" fill-rule="evenodd" stroke="#920202" stroke-width="0" stroke-linejoin="round" stroke-miterlimit="3.2"><ellipse cx="26.2" cy="1028.01" rx="21.86" ry="22.618" fill="#001083"/><ellipse cy="1025.737" cx="25.189" rx="21.86" ry="22.365" fill="#b7c6ff"/><circle cx="25.694" cy="1026.747" r="21.734" fill="#6c6cff"/><path d="M7.106 1026.688s.483-17.83 17.854-18.94c16.037-1.027 19.137 16.793 19.137 16.793s-3.8-13.932-18.904-13.51c-15.693.437-18.087 15.657-18.087 15.657z" fill="#e6e6e6" fill-opacity=".784"/><circle cx="17.118" cy="1016.565" r="3.22" fill="#e6e6e6" fill-opacity=".649"/><g transform="matrix(.74868 0 0 .8171 86.077 178.944)" fill="#001393"><rect width="10" height="15.893" x="-97.321" y="1028.255" ry="3.571"/><path d="M-88.214 1030.22v11.606l18.75 13.75s2.678-1.465 2.678-20c0-16.79-3.214-19.107-3.214-19.107z"/></g><g transform="matrix(.74868 0 0 .784 86.077 216.96)" fill="#98a4f6"><rect width="10" height="15.893" x="-97.321" y="1028.255" ry="3.571"/><path d="M-88.214 1030.22v11.606l18.75 13.75s2.678-1.465 2.678-20c0-16.79-3.214-19.107-3.214-19.107z"/></g><g transform="matrix(.74868 0 0 .7327 86.077 268.037)" fill="#0023ff"><rect ry="3.571" y="1028.255" x="-97.321" height="15.893" width="10"/><path d="M-88.214 1030.22v11.606l18.75 13.75s2.678-1.465 2.678-20c0-16.79-3.214-19.107-3.214-19.107z"/></g></g></svg>